ffmpeg version N-106605-gf67403edb3-20220413 Copyright (c) 2000-2022 the FFmpeg developers
  built with gcc 11.2.0 (crosstool-NG 1.24.0.533_681aaef)
  configuration: --prefix=/ffbuild/prefix --pkg-config-flags=--static --pkg-config=pkg-config --cross-prefix=x86_64-w64-mingw32- --arch=x86_64 --target-os=mingw32 --enable-gpl --enable-version3 --disable-debug --disable-w32threads --enable-pthreads --enable-iconv --enable-libxml2 --enable-zlib --enable-libfreetype --enable-libfribidi --enable-gmp --enable-lzma --enable-fontconfig --enable-libvorbis --enable-opencl --disable-libpulse --enable-libvmaf --disable-libxcb --disable-xlib --enable-amf --enable-libaom --enable-avisynth --enable-libdav1d --enable-libdavs2 --disable-libfdk-aac --enable-ffnvcodec --enable-cuda-llvm --enable-frei0r --enable-libgme --enable-libass --enable-libbluray --enable-libmp3lame --enable-libopus --enable-librist --enable-libtheora --enable-libvpx --enable-libwebp --enable-lv2 --enable-libmfx --enable-libopencore-amrnb --enable-libopencore-amrwb --enable-libopenh264 --enable-libopenjpeg --enable-libopenmpt --enable-librav1e --enable-librubberband --enable-schannel --enable-sdl2 --enable-libsoxr --enable-libsrt --enable-libsvtav1 --enable-libtwolame --enable-libuavs3d --disable-libdrm --disable-vaapi --enable-libvidstab --enable-vulkan --enable-libshaderc --enable-libplacebo --enable-libx264 --enable-libx265 --enable-libxavs2 --enable-libxvid --enable-libzimg --enable-libzvbi --extra-cflags=-DLIBTWOLAME_STATIC --extra-cxxflags= --extra-ldflags=-pthread --extra-ldexeflags= --extra-libs=-lgomp --extra-version=20220413
  libavutil      57. 24.101 / 57. 24.101
  libavcodec     59. 26.100 / 59. 26.100
  libavformat    59. 22.100 / 59. 22.100
  libavdevice    59.  6.100 / 59.  6.100
  libavfilter     8. 31.100 /  8. 31.100
  libswscale      6.  6.100 /  6.  6.100
  libswresample   4.  6.100 /  4.  6.100
  libpostproc    56.  5.100 / 56.  5.100
Passing a number to -vsync is deprecated, use a string argument as described in the manual.
[h264 @ 000001c958689b00] Stream #0: not enough frames to estimate rate; consider increasing probesize
Input #0, h264, from 'tcp://192.168.1.92:8798':
  Duration: N/A, bitrate: N/A
  Stream #0:0: Video: h264 (High), yuv420p(progressive), 1456x800, 30 fps, 30 tbr, 1200k tbn
Stream mapping:
  Stream #0:0 -> #0:0 (h264 (native) -> h264 (libx264))
Press [q] to stop, [?] for help
[libx264 @ 000001c95aa8dfc0] using cpu capabilities: MMX2 SSE2Fast SSSE3 SSE4.2 AVX FMA3 BMI2 AVX2
[libx264 @ 000001c95aa8dfc0] profile Constrained Baseline, level 3.2, 4:2:0, 8-bit
Output #0, mp4, to 'output.mp4':
  Metadata:
    encoder         : Lavf59.22.100
  Stream #0:0: Video: h264 (avc1 / 0x31637661), yuv420p(progressive), 1456x800, q=2-31, 30 fps, 15360 tbn
    Metadata:
      encoder         : Lavc59.26.100 libx264
    Side data:
      cpb: bitrate max/min/avg: 0/0/0 buffer size: 0 vbv_delay: N/A
frame=    1 fps=0.0 q=0.0 size=       0kB time=00:00:00.00 bitrate=N/A speed=   0x    frame=  144 fps=0.0 q=28.0 size=   11008kB time=00:00:03.90 bitrate=23122.2kbits/s speed=7.58x    frame=  174 fps=171 q=28.0 size=   13824kB time=00:00:04.90 bitrate=23111.2kbits/s speed=4.83x    frame=  205 fps=134 q=28.0 size=   16896kB time=00:00:05.93 bitrate=23327.7kbits/s speed=3.88x    frame=  236 fps=115 q=28.0 size=   19712kB time=00:00:06.96 bitrate=23178.9kbits/s speed= 3.4x    frame=  267 fps=104 q=29.0 size=   22784kB time=00:00:08.00 bitrate=23330.7kbits/s speed=3.12x    frame=  298 fps= 97 q=28.0 size=   25600kB time=00:00:09.03 bitrate=23215.6kbits/s speed=2.93x    frame=  328 fps= 92 q=28.0 size=   28672kB time=00:00:10.03 bitrate=23410.0kbits/s speed= 2.8x    frame=  359 fps= 88 q=28.0 size=   31488kB time=00:00:11.06 bitrate=23308.6kbits/s speed= 2.7x    frame=  389 fps= 85 q=28.0 size=   34304kB time=00:00:12.06 bitrate=23288.7kbits/s speed=2.63x    frame=  420 fps= 82 q=28.0 size=   37376kB time=00:00:13.10 bitrate=23372.8kbits/s speed=2.56x    frame=  451 fps= 80 q=28.0 size=   40192kB time=00:00:14.13 bitrate=23296.1kbits/s speed=2.51x    frame=  482 fps= 78 q=28.0 size=   43264kB time=00:00:15.16 bitrate=23368.2kbits/s speed=2.47x    frame=  513 fps= 77 q=28.0 size=   46080kB time=00:00:16.20 bitrate=23301.6kbits/s speed=2.43x    frame=  544 fps= 76 q=28.0 size=   49152kB time=00:00:17.23 bitrate=23364.7kbits/s speed= 2.4x    frame=  574 fps= 75 q=28.0 size=   51968kB time=00:00:18.23 bitrate=23348.5kbits/s speed=2.38x    frame=  605 fps= 74 q=28.0 size=   55040kB time=00:00:19.26 bitrate=23402.4kbits/s speed=2.35x    frame=  637 fps= 73 q=28.0 size=   57856kB time=00:00:20.33 bitrate=23309.3kbits/s speed=2.33x    frame=  668 fps= 72 q=28.0 size=   60928kB time=00:00:21.36 bitrate=23359.8kbits/s speed=2.31x    frame=  699 fps= 72 q=29.0 size=   63744kB time=00:00:22.40 bitrate=23312.0kbits/s speed= 2.3x    frame=  730 fps= 71 q=28.0 size=   66816kB time=00:00:23.43 bitrate=23358.0kbits/s speed=2.28x    frame=  761 fps= 71 q=28.0 size=   69632kB time=00:00:24.46 bitrate=23314.3kbits/s speed=2.27x    frame=  792 fps= 70 q=28.0 size=   72704kB time=00:00:25.50 bitrate=23356.5kbits/s speed=2.26x    frame=  823 fps= 70 q=28.0 size=   75776kB time=00:00:26.53 bitrate=23395.3kbits/s speed=2.25x    frame=  854 fps= 69 q=28.0 size=   78592kB time=00:00:27.56 bitrate=23355.2kbits/s speed=2.23x    frame=  885 fps= 69 q=28.0 size=   81664kB time=00:00:28.60 bitrate=23391.3kbits/s speed=2.23x    frame=  916 fps= 69 q=28.0 size=   84480kB time=00:00:29.63 bitrate=23354.1kbits/s speed=2.22x    frame=  946 fps= 68 q=28.0 size=   87296kB time=00:00:30.63 bitrate=23344.8kbits/s speed=2.21x    frame=  976 fps= 68 q=28.0 size=   90368kB time=00:00:31.63 bitrate=23402.3kbits/s speed= 2.2x    frame= 1007 fps= 68 q=28.0 size=   93184kB time=00:00:32.66 bitrate=23368.2kbits/s speed=2.19x    frame= 1037 fps= 67 q=28.0 size=   96000kB time=00:00:33.66 bitrate=23359.3kbits/s speed=2.19x    